<svg xmlns="http://www.w3.org/2000/svg" viewBox="0 0 320 320">
  <defs>
    <linearGradient id="bg2" x1="0" y1="0" x2="1" y2="1">
      <stop offset="0%" stop-color="#0b1017"/>
      <stop offset="100%" stop-color="#0f141d"/>
    </linearGradient>
    <linearGradient id="rim2" x1="0" y1="0" x2="1" y2="0">
      <stop offset="0%" stop-color="#6bf2c3" stop-opacity="0.5"/>
      <stop offset="55%" stop-color="#6bf2c3" stop-opacity="0"/>
    </linearGradient>
  </defs>
  <rect width="320" height="320" rx="36" fill="url(#bg2)"/>
  <path
    fill="#050608"
    d="M78 272
      C90 232 114 204 146 184
      C136 168 132 150 132 130
      C132 90 164 56 206 56
      C238 56 260 70 272 96
      C280 118 276 148 258 168
      C246 182 242 196 242 214
      C242 248 218 276 186 286
      C150 298 108 292 78 272
      Z"
  />
  <path
    fill="#0b0d11"
    d="M206 98
      C218 100 228 110 230 122
      C232 132 228 144 216 152
      C206 160 192 166 178 168
      C176 162 176 156 180 150
      C190 144 198 136 200 126
      C202 116 200 108 196 102
      C198 100 202 98 206 98
      Z"
  />
  <path
    fill="#050608"
    d="M156 176
      C168 190 176 206 176 220
      C176 238 164 252 148 254
      C132 256 120 248 112 236
      C104 224 104 210 110 198
      C116 188 132 178 156 176
      Z"
  />
  <path
    fill="#0b0d11"
    d="M168 178
      C182 184 192 194 194 208
      C196 220 188 232 174 236
      C160 240 146 234 138 224
      C132 216 132 206 138 198
      C144 190 154 184 168 178
      Z"
  />
  <path
    fill="#0b0d11"
    d="M134 186
      C124 200 120 214 122 230
      C124 246 136 258 152 260
      C168 262 182 252 186 236
      C190 220 186 206 174 194
      C160 182 148 180 134 186
      Z"
  />
  <path
    fill="#050608"
    d="M60 300
      C82 256 120 236 160 232
      C206 228 240 246 274 300
      Z"
  />
  <path
    fill="none"
    stroke="url(#rim2)"
    stroke-width="4"
    d="M230 72
      C250 82 264 100 270 120
      C278 148 266 174 244 196
      C232 208 226 224 222 238
      C216 262 198 282 174 290"
  />
</svg>
