<svg xmlns="http://www.w3.org/2000/svg" viewBox="0 0 320 320">
  <defs>
    <linearGradient id="bg" x1="0" y1="0" x2="1" y2="1">
      <stop offset="0%" stop-color="#0b0f14"/>
      <stop offset="100%" stop-color="#0f141b"/>
    </linearGradient>
    <linearGradient id="rim" x1="0" y1="0" x2="1" y2="0">
      <stop offset="0%" stop-color="#6ee7ff" stop-opacity="0.55"/>
      <stop offset="55%" stop-color="#6ee7ff" stop-opacity="0"/>
    </linearGradient>
  </defs>
  <rect width="320" height="320" rx="36" fill="url(#bg)"/>
  <path
    fill="#050608"
    d="M84 270
      C92 236 112 206 142 186
      C132 168 126 148 126 126
      C126 90 152 58 192 58
      C224 58 248 78 258 106
      C264 124 260 148 246 166
      C236 178 232 190 232 208
      C232 242 204 272 168 282
      C136 292 106 288 84 270
      Z"
  />
  <path
    fill="#0b0d11"
    d="M198 98
      C210 98 222 104 226 114
      C230 124 226 138 214 146
      C206 152 196 156 186 158
      C184 154 184 148 186 144
      C192 140 196 136 198 130
      C200 124 198 116 194 110
      C192 106 192 102 198 98
      Z"
  />
  <path
    fill="#0b0d11"
    d="M170 176
      C176 170 184 168 192 170
      C198 172 202 178 198 184
      C192 190 182 190 172 186
      C168 184 166 180 170 176
      Z"
  />
  <path
    fill="#0b0d11"
    d="M146 188
      C156 200 164 214 166 230
      C168 246 160 258 144 262
      C132 264 122 260 116 250
      C110 240 112 226 120 214
      C128 202 136 194 146 188
      Z"
  />
  <path
    fill="#050608"
    d="M64 300
      C80 258 112 238 150 232
      C192 226 222 240 256 300
      Z"
  />
  <path
    fill="none"
    stroke="url(#rim)"
    stroke-width="4"
    d="M232 76
      C248 86 260 102 264 122
      C270 148 260 172 238 190
      C228 198 222 212 222 226
      C222 252 202 274 174 284"
  />
</svg>
